<?xml version="1.0" standalone="no"?>
<!DOCTYPE svg PUBLIC "-//W3C//DTD SVG 20010904//EN"
 "http://www.w3.org/TR/2001/REC-SVG-20010904/DTD/svg10.dtd">
<svg version="1.0" xmlns="http://www.w3.org/2000/svg"
 width="512.000000pt" height="512.000000pt" viewBox="0 0 512.000000 512.000000"
 preserveAspectRatio="xMidYMid meet">
<metadata>
Created by potrace 1.14, written by Peter Selinger 2001-2017
</metadata>
<g transform="translate(0.000000,512.000000) scale(0.100000,-0.100000)"
fill="#000000" stroke="none">
<path d="M835 4313 c-33 -9 -63 -33 -74 -61 -6 -15 -179 -703 -386 -1529
l-375 -1503 0 -152 c0 -84 5 -170 10 -190 14 -48 52 -78 100 -78 21 0 159 43
324 101 l288 101 292 -101 c160 -56 306 -101 324 -101 18 0 164 45 323 101
l290 101 292 -102 c161 -56 304 -102 319 -102 15 -1 159 45 322 101 l295 103
290 -101 c159 -56 305 -101 323 -101 18 0 164 45 323 101 l290 100 290 -100
c159 -55 297 -101 305 -102 40 -4 64 3 91 30 l29 29 0 201 0 201 -370 1483
c-204 815 -375 1494 -381 1509 -6 15 -23 35 -38 45 -25 17 -108 18 -1751 19
-949 1 -1734 0 -1745 -3z m745 -234 c0 -23 -81 -673 -84 -676 -1 -1 -84 27
-185 62 -100 36 -191 65 -201 65 -10 0 -89 -24 -174 -54 -86 -30 -156 -53
-156 -50 0 6 160 646 165 662 3 9 76 12 320 12 313 0 315 0 315 -21z m870
-325 c0 -273 -3 -345 -12 -342 -7 3 -91 31 -186 64 l-172 59 -171 -59 c-93
-32 -173 -56 -176 -53 -4 5 51 491 74 640 l6 37 318 0 319 0 0 -346z m873 309
c23 -149 78 -635 74 -640 -3 -3 -83 21 -176 53 l-171 59 -172 -59 c-95 -33
-179 -61 -185 -64 -10 -3 -13 69 -13 342 l0 346 319 0 318 0 6 -37z m944 -298
c45 -181 83 -333 83 -337 0 -4 -70 18 -156 48 -85 30 -164 54 -174 54 -10 0
-101 -29 -201 -65 -101 -35 -184 -63 -185 -62 -3 3 -84 653 -84 676 0 21 1 21
317 19 l317 -3 83 -330z m-2977 -530 c91 -31 168 -60 172 -64 5 -5 -79 -721
-86 -728 -1 -2 -100 31 -219 72 -119 41 -226 75 -239 75 -13 0 -101 -28 -196
-61 -95 -34 -174 -60 -177 -58 -2 3 35 159 83 348 l87 344 195 68 c107 37 200
66 205 65 6 -2 84 -29 175 -61z m931 15 c79 -28 163 -57 187 -66 l42 -16 0
-359 c0 -197 -2 -359 -4 -359 -2 0 -95 32 -206 70 -111 39 -212 70 -225 70
-12 0 -106 -30 -209 -66 -103 -36 -190 -63 -193 -60 -3 3 14 162 38 353 l43
349 190 66 c105 37 191 67 192 67 0 1 66 -22 145 -49z m1030 -21 l185 -63 43
-349 c24 -191 41 -350 38 -353 -3 -3 -89 24 -192 60 -103 36 -198 66 -210 66
-13 0 -114 -31 -225 -70 -111 -38 -204 -70 -206 -70 -2 0 -4 162 -4 359 l0
359 43 16 c157 58 324 114 332 112 6 -2 93 -32 196 -67z m984 -4 l180 -62 87
-344 c48 -189 85 -345 83 -348 -3 -2 -82 24 -177 58 -95 33 -183 61 -196 61
-13 0 -120 -34 -239 -75 -119 -41 -218 -74 -219 -72 -3 3 -85 662 -87 701 -2
29 -1 29 173 92 101 36 183 60 195 57 11 -3 101 -34 200 -68z m-3100 -939
c196 -68 210 -75 209 -97 -1 -13 -23 -201 -50 -416 -31 -254 -53 -393 -60
-393 -6 0 -114 36 -240 79 -126 44 -240 83 -254 86 -17 4 -93 -18 -242 -70
-119 -41 -219 -75 -221 -75 -3 0 41 181 97 402 l101 402 215 77 c118 42 220
77 225 77 6 1 104 -32 220 -72z m1081 5 c109 -38 207 -72 217 -76 16 -7 17
-36 17 -421 l0 -413 -217 76 c-120 41 -234 80 -253 85 -31 8 -62 0 -269 -72
-128 -45 -234 -80 -236 -78 -1 2 21 185 48 408 l51 406 216 76 c118 42 218 77
221 77 3 1 96 -30 205 -68z m1119 -8 l221 -77 51 -405 c27 -224 49 -407 48
-409 -2 -2 -108 33 -236 78 -207 72 -238 80 -269 72 -19 -5 -133 -44 -252 -85
l-218 -76 0 414 0 413 43 16 c60 22 381 135 387 135 3 1 104 -34 225 -76z
m1100 -1 l220 -78 101 -402 c56 -221 99 -402 95 -402 -3 0 -102 34 -220 75
-117 41 -219 75 -226 75 -7 0 -122 -38 -256 -85 -133 -47 -247 -85 -253 -85
-9 0 -104 699 -110 809 -1 22 13 29 209 97 116 40 212 73 215 73 3 0 104 -35
225 -77z"/>
</g>
</svg>
